<svg xmlns="http://www.w3.org/2000/svg" width="30" height="30" viewBox="0 0 30 30"><g><g><g><g><path fill="#cbd9f2" d="M20.33 28.24c-4.361 0-7.91-3.548-7.91-7.91 0-4.361 3.549-7.91 7.91-7.91 4.362 0 7.91 3.549 7.91 7.91 0 4.362-3.548 7.91-7.91 7.91z"/></g><g><path fill="#2364d0" d="M19.16 17.402v.293h.88a.879.879 0 1 1 0 1.758h-.88v1.758h.88a.879.879 0 1 1 0 1.758h-.88v.293c0 .807.657 1.465 1.465 1.465s1.465-.658 1.465-1.465a.879.879 0 1 1 1.758 0 3.226 3.226 0 0 1-3.223 3.222 3.226 3.226 0 0 1-3.223-3.222v-.293h-.879a.879.879 0 1 1 0-1.758h.88v-1.758h-.88a.879.879 0 1 1 0-1.758h.88v-.293a3.226 3.226 0 0 1 3.222-3.222 3.226 3.226 0 0 1 3.223 3.222.879.879 0 1 1-1.758 0c0-.807-.657-1.465-1.465-1.465s-1.465.658-1.465 1.465zM30 20.332C30 25.662 25.663 30 20.332 30c-5.33 0-9.668-4.337-9.668-9.668 0-.356.02-.708.058-1.054-.35.038-.702.058-1.054.058C4.338 19.336 0 14.999 0 9.668 0 4.338 4.337 0 9.668 0c5.33 0 9.668 4.337 9.668 9.668 0 .352-.02.704-.058 1.054a9.728 9.728 0 0 1 1.054-.058c5.33 0 9.668 4.337 9.668 9.668zm-18.896-2.884a9.712 9.712 0 0 1 6.344-6.344c.086-.473.13-.954.13-1.436 0-4.362-3.548-7.91-7.91-7.91s-7.91 3.548-7.91 7.91 3.548 7.91 7.91 7.91c.482 0 .963-.044 1.436-.13zm17.138 2.884c0-4.362-3.548-7.91-7.91-7.91s-7.91 3.548-7.91 7.91 3.548 7.91 7.91 7.91 7.91-3.548 7.91-7.91zM20.297 3.844a.879.879 0 0 1 0-1.243L22.64.257A.879.879 0 1 1 23.883 1.5l-.895.895C26.928 2.843 30 6.196 30 10.254a.879.879 0 1 1-1.758 0 6.162 6.162 0 0 0-5.114-6.064l.755.755a.879.879 0 1 1-1.243 1.243zM9.703 26.156c.344.343.344.9 0 1.243L7.36 29.743a.876.876 0 0 1-1.243 0 .879.879 0 0 1 0-1.243l.895-.895C3.072 27.157 0 23.804 0 19.746a.879.879 0 1 1 1.758 0 6.162 6.162 0 0 0 5.114 6.065l-.755-.756a.879.879 0 1 1 1.243-1.243zM8.79 7.91a.88.88 0 0 0 .879.88 2.64 2.64 0 0 1 2.637 2.636 2.641 2.641 0 0 1-1.758 2.485v1.03a.879.879 0 1 1-1.758 0v-.878H7.91a.879.879 0 1 1 0-1.758h1.758a.88.88 0 0 0 0-1.758A2.64 2.64 0 0 1 7.031 7.91 2.64 2.64 0 0 1 8.79 5.425v-1.03a.879.879 0 1 1 1.758 0v.878h.879a.879.879 0 1 1 0 1.758H9.668a.88.88 0 0 0-.879.88z"/></g></g></g></g></svg>