<svg xmlns="http://www.w3.org/2000/svg" width="30" height="30" viewBox="0 0 30 30"><g><g><g><path fill="#2364d0" d="M15 1.758c.372 0 .74.016 1.104.046l.789 2.366a.878.878 0 0 1-.833 1.162H15a2.64 2.64 0 0 0-2.637 2.637v.592c0 .37-.171.707-.427.838-1.372.703-2.152 2.047-2.13 3.426L7.98 11.607c-.371-.247-.505-.727-.304-1.091.41-.748.45-1.625.11-2.405a2.709 2.709 0 0 0-1.842-1.554l-.943-.23A13.216 13.216 0 0 1 15 1.757zm12.978 15.889h-1.345a.867.867 0 0 1-.747-.417.868.868 0 0 1-.039-.856l.3-.601c.183-.365.279-.773.279-1.18v-1.345a2.64 2.64 0 0 0-2.637-2.639.88.88 0 0 1-.879-.88V8.7c0-.235.092-.456.258-.622l.95-.95c.287-.288.507-.645.636-1.032l.01-.03a13.209 13.209 0 0 1 3.478 8.943c0 .903-.09 1.786-.264 2.639zM19.845 23.4a4.363 4.363 0 0 0 1.307-3.128v-1.757a.879.879 0 0 0-.879-.88h-1.55a2.288 2.288 0 0 1-2.058-1.271 4.037 4.037 0 0 0-3.63-2.244h-1.007l-.268-.534c-.473-.948-.044-2.1.978-2.624.84-.431 1.383-1.374 1.383-2.402V7.97a.88.88 0 0 1 .879-.88h1.06c1.808 0 3.076-1.782 2.498-3.48l-.498-1.494a13.207 13.207 0 0 1 5.295 2.62l-.268.804a.883.883 0 0 1-.213.344l-.95.95a2.62 2.62 0 0 0-.772 1.864v1.03a2.64 2.64 0 0 0 2.637 2.636.88.88 0 0 1 .879.88v1.342a.884.884 0 0 1-.093.393l-.3.6a2.62 2.62 0 0 0 .115 2.566 2.62 2.62 0 0 0 2.243 1.25h.859c-1.676 4.75-5.988 8.266-11.17 8.782.75-1.61 1.91-3.183 3.523-4.775zm-6.939-7.522h.128c.876 0 1.664.487 2.055 1.272a4.03 4.03 0 0 0 3.625 2.244h.67v.878a2.62 2.62 0 0 1-.783 1.877c-1.62 1.602-2.83 3.202-3.666 4.85a10.167 10.167 0 0 1-.816-3.966 3.28 3.28 0 0 0-.965-2.333l-.429-.43a3.3 3.3 0 0 0 .522-3.71zM1.758 15c0-2.629.77-5.08 2.096-7.143l1.67.406a.96.96 0 0 1 .65.552.963.963 0 0 1-.04.854c-.635 1.158-.253 2.652.87 3.401l3.799 2.532.873 1.746a1.54 1.54 0 0 1-.29 1.78l-.523.524a.879.879 0 0 0 0 1.243l1.049 1.049c.29.29.451.678.451 1.09 0 1.786.407 3.556 1.176 5.127C6.922 27.431 1.758 21.808 1.758 15zM0 15c0 8.259 6.74 15 14.999 15H15c8.26 0 15-6.741 15-15 0-8.26-6.741-15-15-15C6.751 0 0 6.734 0 15z"/></g><g><path fill="#2364d0" fill-opacity=".2" d="M16.324 28.18c.75-1.61 1.91-3.183 3.523-4.775a4.363 4.363 0 0 0 1.307-3.127V18.52a.879.879 0 0 0-.879-.879h-1.55a2.288 2.288 0 0 1-2.058-1.272 4.037 4.037 0 0 0-3.63-2.243H12.03l-.268-.535c-.473-.947-.044-2.1.978-2.624.84-.43 1.383-1.373 1.383-2.401v-.593a.88.88 0 0 1 .879-.879h1.06c1.808 0 3.076-1.783 2.498-3.48l-.498-1.494a13.207 13.207 0 0 1 5.295 2.619l-.269.805a.883.883 0 0 1-.212.343l-.95.95a2.62 2.62 0 0 0-.772 1.864v1.03a2.64 2.64 0 0 0 2.637 2.637.88.88 0 0 1 .879.879v1.343a.884.884 0 0 1-.093.393l-.3.6a2.62 2.62 0 0 0 .115 2.566 2.62 2.62 0 0 0 2.243 1.25h.859c-1.676 4.749-5.988 8.266-11.17 8.782z"/></g><g><path fill="#cbd9f2" d="M1.76 15.003c0-2.629.77-5.08 2.096-7.143l1.67.406a.96.96 0 0 1 .651.552.963.963 0 0 1-.04.855c-.636 1.157-.254 2.651.87 3.4l3.798 2.532.873 1.746a1.54 1.54 0 0 1-.29 1.78l-.523.524a.879.879 0 0 0 0 1.243l1.049 1.049c.291.291.451.678.451 1.09 0 1.786.407 3.556 1.176 5.127-6.617-.73-11.781-6.353-11.781-13.16z"/></g></g></g></svg>