<svg xmlns="http://www.w3.org/2000/svg" width="30" height="27" viewBox="0 0 30 27"><g><g><g><g><path fill="#2364d0" d="M28.125 13.184c0 7.287-5.897 13.183-13.184 13.183-2.184 0-4.32-.537-6.227-1.561l-.481.77a.88.88 0 0 1-1.212.279A14.938 14.938 0 0 1 0 13.184c0-1.617.257-3.207.763-4.726a.88.88 0 0 1 1.112-.556l.862.287A13.166 13.166 0 0 1 14.941 0c.486 0 .88.394.88.879v11.426h11.425c.485 0 .879.393.879.879zM4.409 8.746l9.654 3.218V1.791a11.408 11.408 0 0 0-9.654 6.955zm9.195 4.918L2.181 9.857a13.206 13.206 0 0 0-.423 3.327c0 4.277 2.027 8.21 5.465 10.69zm12.73.399H15.429L9.648 23.31a11.404 11.404 0 0 0 5.293 1.298c6.005 0 10.942-4.655 11.393-10.546zM30 9.668a.879.879 0 0 1-.879.879H18.457a.879.879 0 0 1 0-1.758h.879V6.152a.879.879 0 0 1 1.758 0V8.79h1.758V4.395a.879.879 0 0 1 1.757 0v4.394h1.758V2.637a.879.879 0 0 1 1.758 0v6.152h.996c.485 0 .879.394.879.879z"/></g><g><path fill="#cbd9f2" d="M14.943 24.607c-1.854 0-3.667-.447-5.293-1.298l5.78-9.249h10.906c-.45 5.891-5.388 10.547-11.393 10.547z"/></g><g><path fill="#cbd9f2" d="M14.064 1.79v10.173L4.41 8.745a11.408 11.408 0 0 1 9.654-6.955z"/></g></g></g></g></svg>