<svg xmlns="http://www.w3.org/2000/svg" width="50" height="50" viewBox="0 0 50 50"><g><g><g><g><path fill="#4f83d9" d="M32.524 30.887c-7.717 0-13.994-6.277-13.994-13.993C18.53 9.177 24.807 2.9 32.524 2.9c7.716 0 13.993 6.277 13.993 13.994 0 7.716-6.277 13.993-13.993 13.993z"/></g><g><path fill="#fff" d="M2.895 32.523c0-7.322 5.651-13.348 12.82-13.944a16.79 16.79 0 0 0 2.847 7.81l-1.69 2.938-2.763-4.845a.386.386 0 0 0-.335-.195h-2.545a.387.387 0 0 0-.33.586l4.145 6.856h-2.185a.386.386 0 0 0-.386.386v2.066c0 .213.172.386.386.386h2.607v1.482h-2.607a.386.386 0 0 0-.386.386v2.066c0 .213.172.386.386.386h2.607v2.772c0 .213.172.386.386.386h2.064a.386.386 0 0 0 .386-.386v-2.772h2.607a.386.386 0 0 0 .386-.386v-2.066a.386.386 0 0 0-.386-.386h-2.607v-1.482h2.607a.386.386 0 0 0 .386-.386v-2.066a.386.386 0 0 0-.386-.386h-2.185l1.794-2.968a16.839 16.839 0 0 0 10.305 4.932c-.596 7.17-6.62 12.824-13.94 12.824-7.713 0-13.988-6.278-13.988-13.994zm29.628-1.65c-7.716 0-13.994-6.276-13.994-13.99 0-7.713 6.278-13.988 13.994-13.988S46.517 9.17 46.517 16.884c0 7.713-6.278 13.988-13.994 13.988zm16.889-13.984C49.412 7.576 41.836 0 32.523 0c-8.905 0-16.222 6.929-16.845 15.678C6.928 16.3 0 23.618 0 32.523c0 9.313 7.576 16.889 16.889 16.889 8.905 0 16.222-6.929 16.845-15.678 8.75-.623 15.678-7.94 15.678-16.845z"/></g><g><path fill="#fafafa" d="M36.384 16.915c-.631-.716-1.534-1.298-2.84-1.83-2.013-.833-2.163-1.208-2.163-1.684 0-.633.54-1.01 1.445-1.01 1.217 0 1.984.438 2.312.626a.857.857 0 0 0 1.229-.442l.543-1.434a.856.856 0 0 0-.37-1.045 6.333 6.333 0 0 0-2.4-.81V7.968a.86.86 0 0 0-.858-.858h-1.347a.86.86 0 0 0-.859.858v1.51c-2.03.595-3.28 2.18-3.28 4.184 0 1.147.4 2.09 1.224 2.881.646.62 1.567 1.152 2.896 1.673 1.92.778 1.92 1.437 1.92 1.79 0 .772-.678 1.271-1.727 1.271-.933 0-1.9-.288-2.653-.79a.854.854 0 0 0-.746-.1.853.853 0 0 0-.539.525l-.521 1.456a.862.862 0 0 0 .31.988c.73.521 1.823.908 2.964 1.054v1.398a.86.86 0 0 0 .859.858h1.368a.86.86 0 0 0 .86-.858V24.23c2.093-.62 3.432-2.316 3.432-4.377 0-1.168-.346-2.13-1.059-2.939z"/></g></g></g></g></svg>