<svg xmlns="http://www.w3.org/2000/svg" width="50" height="52" viewBox="0 0 50 52"><g><g><g><path fill="none" stroke="#fff" stroke-miterlimit="50" stroke-width="2.8" d="M2 19.124a2 2 0 0 1 .96-1.708L25 4v0l22.04 13.416a2 2 0 0 1 .96 1.708V48a2 2 0 0 1-2 2H4a2 2 0 0 1-2-2z"/></g><g><path fill="none" stroke="#979797" stroke-miterlimit="50" stroke-width="2.8" d="M11 4a2 2 0 0 1 2-2h24a2 2 0 0 1 2 2v28a2 2 0 0 1-2 2H13a2 2 0 0 1-2-2z"/></g><g><path fill="#4f83d9" d="M11 4a2 2 0 0 1 2-2h24a2 2 0 0 1 2 2v30a2 2 0 0 1-2 2H13a2 2 0 0 1-2-2z"/><path fill="none" stroke="#fff" stroke-miterlimit="50" stroke-width="2.8" d="M11 4a2 2 0 0 1 2-2h24a2 2 0 0 1 2 2v30a2 2 0 0 1-2 2H13a2 2 0 0 1-2-2z"/></g><g><path fill="none" stroke="#fff" stroke-linecap="round" stroke-miterlimit="50" stroke-width="2.8" d="M17.5 12.5h15"/></g><g><path fill="none" stroke="#fff" stroke-linecap="round" stroke-miterlimit="50" stroke-width="2.8" d="M17.5 18.5h9"/></g><g><path fill="#2364d0" d="M2 19.987a1 1 0 0 1 1.596-.803l20.808 15.434a1 1 0 0 0 1.192 0l20.808-15.434a1 1 0 0 1 1.596.803V48a2 2 0 0 1-2 2H4a2 2 0 0 1-2-2z"/><path fill="none" stroke="#fff" stroke-miterlimit="50" stroke-width="2.8" d="M2 19.987a1 1 0 0 1 1.596-.803l20.808 15.434a1 1 0 0 0 1.192 0l20.808-15.434a1 1 0 0 1 1.596.803V48a2 2 0 0 1-2 2H4a2 2 0 0 1-2-2z"/></g></g></g></svg>