<svg xmlns="http://www.w3.org/2000/svg" width="44" height="50" viewBox="0 0 44 50"><g><g><g><path fill="#4f83d9" d="M40.932 46.985h-5.84v-14.58a7.323 7.323 0 0 1 5.84 7.168zM2.92 39.573a7.324 7.324 0 0 1 5.84-7.168v14.58H2.92zm21.926-10.271v2.956a2.925 2.925 0 0 1-2.92 2.924 2.925 2.925 0 0 1-2.92-2.924v-2.96a10.26 10.26 0 0 0 5.84.004zM14.619 19.49v-7.7h14.614v7.7c0 1.953-.76 3.788-2.14 5.169-4.569 4.57-12.474 1.347-12.474-5.17z"/></g><g><path fill="#fff" d="M40.936 46.979h-5.848v-14.57c3.332.678 5.848 3.632 5.848 7.162zM2.924 39.57c0-3.53 2.515-6.483 5.848-7.163v14.57H2.924zm19-1.462a5.853 5.853 0 0 0 5.846-5.848h4.384V46.98H11.696V32.26h4.384a5.853 5.853 0 0 0 5.845 5.848zm2.92-8.804v2.961a2.927 2.927 0 0 1-2.92 2.93 2.927 2.927 0 0 1-2.918-2.93v-2.965c1.912.573 3.956.564 5.838.004zM14.62 19.493v-7.7h14.62v7.7c0 1.953-.76 3.789-2.141 5.17-4.57 4.57-12.48 1.347-12.48-5.17zM9.89 7.597C8.835 6.358 8.624 4.334 8.654 2.924h16.2A4.39 4.39 0 0 1 29.24 7.31v1.56H13.158c-1.469 0-2.537-.417-3.268-1.273zm23.736 21.74h-5.848v-1.442c2.682-1.876 4.386-4.941 4.386-8.402V7.31c0-4.03-3.28-7.31-7.31-7.31H7.31c-.716 0-1.326.518-1.443 1.224-.034.21-.819 5.186 1.789 8.258 1.018 1.2 2.373 1.937 4.04 2.201v7.81a10.23 10.23 0 0 0 4.386 8.394v1.45h-5.848C4.59 29.337 0 33.928 0 39.571v8.87c0 .807.655 1.462 1.462 1.462h40.936c.807 0 1.462-.655 1.462-1.462v-8.87c0-5.643-4.591-10.234-10.234-10.234z"/></g></g></g></svg>