<svg xmlns="http://www.w3.org/2000/svg" width="56" height="50" viewBox="0 0 56 50"><g><g><g><path fill="#4f83d9" d="M3 5.23l.002 19.978-.002.269c0 7.406 3.289 14.236 8.737 18.872l-.001-30.382z"/></g><g><path fill="#fff" d="M11.736 13.96l.001 30.375C6.289 39.7 3 32.872 3 25.468l.002-.27L3 5.227zM29.319 3.035C42.564 3.717 53 14.614 53 27.843c0 6.809-2.772 13.16-7.54 17.78L39 39.179a16.038 16.038 0 0 0 4.675-11.336c0-8.852-7.146-16.033-15.969-16.033l-13.88-.001-8.81-8.81L28.661 3zM0 0l.002 25.18-.002.293C0 36.078 5.963 45.299 14.737 50V14.81h12.968c7.163 0 12.969 5.835 12.969 13.033 0 4.69-2.465 8.8-6.165 11.096l10.812 10.78C51.825 44.622 56 36.718 56 27.844 56 12.957 44.253.8 29.474.038V0z"/></g></g></g></svg>