<?xml version="1.0" encoding="UTF-8"?>
<svg width="15px" height="77px" viewBox="0 0 15 77" version="1.1" xmlns="http://www.w3.org/2000/svg" xmlns:xlink="http://www.w3.org/1999/xlink">
    <!-- Generator: Sketch 58 (84663) - https://sketch.com -->
    <title>arrow_down</title>
    <desc>Created with Sketch.</desc>
    <g id="Final" stroke="none" stroke-width="1" fill="none" fill-rule="evenodd">
        <g id="ratesnet-7" transform="translate(-1128.000000, -2426.000000)">
            <g id="how-it-works" transform="translate(135.000000, 2023.000000)">
                <g id="Group-16-Copy-2" transform="translate(830.000000, 110.000000)">
                    <g id="arrow_down" transform="translate(163.000000, 293.000000)">
                        <path d="M14.5,62.5 L7.5,76.5 L0.5,62.5 L14.5,62.5 Z M8.5,51.5 L8.5,59.5 L6.5,59.5 L6.5,51.5 L8.5,51.5 Z M8.5,39.5 L8.5,47.5 L6.5,47.5 L6.5,39.5 L8.5,39.5 Z M8.5,27.5 L8.5,35.5 L6.5,35.5 L6.5,27.5 L8.5,27.5 Z M8.5,15.5 L8.5,23.5 L6.5,23.5 L6.5,15.5 L8.5,15.5 Z" fill="#2364D0" fill-rule="nonzero"></path>
                        <rect id="bg-copy-2" fill="#FFFFFF" x="0" y="0" width="14" height="14"></rect>
                        <polygon id="bg-copy-3" fill="#2364D0" points="4 4 10 4 10 10 4 10"></polygon>
                    </g>
                </g>
            </g>
        </g>
    </g>
</svg>