<svg xmlns="http://www.w3.org/2000/svg" width="18" height="18" viewBox="0 0 18 18"><g><g><path fill="#fff" d="M15.493 16.525l-.032.04-.144.148a3.261 3.261 0 0 1-2.146.921l-.21.006-.264-.008c-1.136-.073-2.155-.405-3.408-.996a17.685 17.685 0 0 1-5.892-4.593c-1.35-1.616-2.266-3.138-2.88-4.789C.13 6.216-.063 5.307.018 4.325a3.18 3.18 0 0 1 .8-1.866l.147-.155 1.24-1.246.157-.141C2.795.556 3.303.36 3.833.36c.532 0 1.037.197 1.452.552l.135.124c.172.158.338.32.541.527l.306.314 1.188 1.184c.937.933.976 2.194.117 3.153l-.117.124-.87.871c.185.339.423.688.74 1.086.904 1.107 1.841 1.957 2.865 2.605l.085.049.17.088.874-.866c.465-.464 1.03-.717 1.627-.717.542 0 1.052.208 1.479.59l.139.134 1.995 1.994c.467.46.722 1.028.722 1.63 0 .593-.248 1.16-.7 1.629-.1.102-.201.205-.313.314l-.176.169-.363.354-.086.091-.148.168-.023.026zM3.84 2.42c-.034 0-.098.03-.174.1L2.424 3.758c-.211.21-.32.443-.345.74-.048.58.064 1.208.376 2.038.528 1.422 1.328 2.749 2.531 4.192a15.64 15.64 0 0 0 5.2 4.055c.902.43 1.65.69 2.397.776l.25.022.083.003.2-.006c.34-.027.59-.15.808-.382.17-.197.34-.378.562-.593l.176-.17.3-.292.188-.198c.11-.126.093-.176-.051-.318l-2.073-2.064c-.039-.033-.072-.05-.087-.05-.024 0-.093.038-.17.114l-1.246 1.242a1.424 1.424 0 0 1-.209.176c-.206.144-.449.231-.726.231-.166 0-.326-.032-.484-.094l-.118-.053-.177-.102-.439-.223-.198-.11-.086-.052c-1.22-.769-2.325-1.77-3.33-3.007l-.046-.051c-.588-.743-.975-1.372-1.266-2.076l-.048-.16c-.098-.397-.047-.772.243-1.125l.12-.134.149-.134.233-.219.256-.25.297-.3.044-.042.314-.315c.12-.126.103-.153-.052-.307l-1-.997-.592-.602a16.607 16.607 0 0 0-.209-.206l-.255-.241c-.045-.036-.082-.054-.103-.054z"/></g></g></svg>