<?xml version="1.0" encoding="UTF-8"?>
<svg width="77px" height="15px" viewBox="0 0 77 15" version="1.1" xmlns="http://www.w3.org/2000/svg" xmlns:xlink="http://www.w3.org/1999/xlink">
    <!-- Generator: Sketch 58 (84663) - https://sketch.com -->
    <title>arrow_left</title>
    <desc>Created with Sketch.</desc>
    <g id="Final" stroke="none" stroke-width="1" fill="none" fill-rule="evenodd">
        <g id="ratesnet-7" transform="translate(-468.000000, -2275.000000)">
            <g id="how-it-works" transform="translate(135.000000, 2023.000000)">
                <g id="Group-16" transform="translate(0.000000, 110.000000)">
                    <g id="Group-27" transform="translate(333.000000, 143.000000)">
                        <g id="arrow_left">
                            <path d="M62.5,-0.5 L76.5,6.5 L62.5,13.5 L62.5,-0.5 Z M23.5,5.5 L23.5,7.5 L15.5,7.5 L15.5,5.5 L23.5,5.5 Z M35.5,5.5 L35.5,7.5 L27.5,7.5 L27.5,5.5 L35.5,5.5 Z M47.5,5.5 L47.5,7.5 L39.5,7.5 L39.5,5.5 L47.5,5.5 Z M59.5,5.5 L59.5,7.5 L51.5,7.5 L51.5,5.5 L59.5,5.5 Z" fill="#2364D0" fill-rule="nonzero"></path>
                            <rect id="bg-copy-2" fill="#FFFFFF" x="0" y="0" width="14" height="14"></rect>
                            <polygon id="bg-copy-3" fill="#2364D0" points="4 4 10 4 10 10 4 10"></polygon>
                        </g>
                    </g>
                </g>
            </g>
        </g>
    </g>
</svg>