<?xml version="1.0" encoding="UTF-8"?>
<svg width="76px" height="15px" viewBox="0 0 76 15" version="1.1" xmlns="http://www.w3.org/2000/svg" xmlns:xlink="http://www.w3.org/1999/xlink">
    <!-- Generator: Sketch 58 (84663) - https://sketch.com -->
    <title>arrow_right</title>
    <desc>Created with Sketch.</desc>
    <g id="Final" stroke="none" stroke-width="1" fill="none" fill-rule="evenodd">
        <g id="ratesnet-7" transform="translate(-895.000000, -2650.000000)">
            <g id="how-it-works" transform="translate(135.000000, 2023.000000)">
                <g id="Group-27" transform="translate(798.000000, 635.000000) scale(-1, 1) translate(-798.000000, -635.000000) translate(760.000000, 628.000000)">
                    <g id="arrow_right">
                        <path d="M61.5,-0.5 L75.5,6.5 L61.5,13.5 L61.5,-0.5 Z M22.5,5.5 L22.5,7.5 L14.5,7.5 L14.5,5.5 L22.5,5.5 Z M34.5,5.5 L34.5,7.5 L26.5,7.5 L26.5,5.5 L34.5,5.5 Z M46.5,5.5 L46.5,7.5 L38.5,7.5 L38.5,5.5 L46.5,5.5 Z M58.5,5.5 L58.5,7.5 L50.5,7.5 L50.5,5.5 L58.5,5.5 Z" fill="#2364D0" fill-rule="nonzero"></path>
                        <rect id="bg-copy-2" fill="#FFFFFF" x="0" y="0" width="14" height="14"></rect>
                        <polygon id="bg-copy-3" fill="#2364D0" points="4 4 10 4 10 10 4 10"></polygon>
                    </g>
                </g>
            </g>
        </g>
    </g>
</svg>