<svg xmlns="http://www.w3.org/2000/svg" width="20" height="16" viewBox="0 0 20 16"><g><g><g><path fill="#fff" d="M19.145 1.855c-.307.136-.622.251-.944.344.381-.431.672-.939.85-1.495a.315.315 0 0 0-.461-.366 7.433 7.433 0 0 1-2.197.868A4.213 4.213 0 0 0 13.459.01 4.197 4.197 0 0 0 9.3 4.744 10.732 10.732 0 0 1 1.935.836a.315.315 0 0 0-.516.04A4.19 4.19 0 0 0 .85 2.984c0 1.01.36 1.968.997 2.717a3.551 3.551 0 0 1-.56-.25.315.315 0 0 0-.468.268v.056c0 1.507.81 2.865 2.051 3.605a3.609 3.609 0 0 1-.319-.047.315.315 0 0 0-.359.406 4.19 4.19 0 0 0 3.071 2.81A7.416 7.416 0 0 1 1.3 13.68c-.297 0-.596-.017-.888-.052a.315.315 0 0 0-.207.578 11.305 11.305 0 0 0 6.113 1.792c4.268 0 6.938-2.013 8.426-3.701 1.856-2.105 2.92-4.892 2.92-7.645 0-.115-.001-.232-.005-.347a8.15 8.15 0 0 0 1.875-1.987.315.315 0 0 0-.389-.463z"/></g></g></g></svg>