<svg xmlns="http://www.w3.org/2000/svg" width="50" height="50" viewBox="0 0 50 50"><g><g><g><path fill="#4f83d9" d="M33.884 47.067c-7.27 0-13.184-5.914-13.184-13.183 0-7.27 5.914-13.184 13.184-13.184 7.269 0 13.183 5.914 13.183 13.184s-5.914 13.183-13.183 13.183z"/></g><g><path fill="#fff" d="M31.934 29.004v.488h1.464a1.465 1.465 0 1 1 0 2.93h-1.464v2.93h1.464a1.465 1.465 0 1 1 0 2.93h-1.464v.488a2.444 2.444 0 0 0 2.441 2.44 2.444 2.444 0 0 0 2.441-2.44 1.465 1.465 0 1 1 2.93 0 5.377 5.377 0 0 1-5.371 5.37 5.377 5.377 0 0 1-5.371-5.37v-.489h-1.465a1.465 1.465 0 1 1 0-2.93h1.465v-2.93h-1.465a1.465 1.465 0 1 1 0-2.929h1.465v-.488a5.377 5.377 0 0 1 5.371-5.371 5.377 5.377 0 0 1 5.371 5.37 1.465 1.465 0 1 1-2.93 0 2.444 2.444 0 0 0-2.441-2.44 2.444 2.444 0 0 0-2.441 2.44zM50 33.887C50 42.772 42.772 50 33.887 50s-16.114-7.228-16.114-16.113c0-.594.034-1.18.097-1.758-.583.064-1.17.098-1.757.098C7.228 32.227 0 24.998 0 16.113 0 7.228 7.228 0 16.113 0s16.114 7.228 16.114 16.113c0 .588-.034 1.174-.098 1.757a16.211 16.211 0 0 1 1.758-.097C42.772 17.773 50 25.002 50 33.887zm-31.494-4.808c1.574-5.025 5.548-8.999 10.573-10.573a13.28 13.28 0 0 0 .218-2.393c0-7.269-5.914-13.183-13.184-13.183C8.844 2.93 2.93 8.844 2.93 16.113c0 7.27 5.914 13.184 13.183 13.184.804 0 1.606-.073 2.393-.218zm28.564 4.808c0-7.27-5.914-13.184-13.183-13.184-7.27 0-13.184 5.914-13.184 13.184S26.617 47.07 33.887 47.07 47.07 41.156 47.07 33.887zM33.828 6.407a1.464 1.464 0 0 1 0-2.072L37.734.43a1.464 1.464 0 1 1 2.071 2.072l-1.49 1.49C44.88 4.739 50 10.328 50 17.09a1.465 1.465 0 1 1-2.93 0c0-5.065-3.69-9.282-8.524-10.107l1.26 1.259a1.464 1.464 0 1 1-2.072 2.071zM16.172 43.593c.573.572.573 1.5 0 2.072l-3.906 3.906A1.46 1.46 0 0 1 11.23 50a1.465 1.465 0 0 1-1.036-2.5l1.492-1.492C5.119 45.262 0 39.673 0 32.91a1.465 1.465 0 1 1 2.93 0c0 5.065 3.69 9.283 8.524 10.108l-1.26-1.26a1.465 1.465 0 1 1 2.072-2.071zm-1.524-30.41c0 .809.658 1.465 1.465 1.465a4.4 4.4 0 0 1 4.395 4.395 4.402 4.402 0 0 1-2.93 4.143v1.716a1.465 1.465 0 1 1-2.93 0v-1.464h-1.464a1.465 1.465 0 1 1 0-2.93h2.93c.807 0 1.464-.657 1.464-1.465s-.657-1.465-1.465-1.465a4.4 4.4 0 0 1-4.394-4.394 4.401 4.401 0 0 1 2.93-4.143V7.324a1.465 1.465 0 1 1 2.93 0V8.79h1.464a1.465 1.465 0 1 1 0 2.93h-2.93c-.807 0-1.465.657-1.465 1.465z"/></g></g></g></svg>