<svg xmlns="http://www.w3.org/2000/svg" width="50" height="50" viewBox="0 0 50 50"><g><g><g><path fill="#4f83d9" d="M27.203 46.965c1.249-2.684 3.185-5.306 5.872-7.96a7.272 7.272 0 0 0 2.179-5.212v-2.93c0-.808-.656-1.464-1.465-1.464h-2.584a3.814 3.814 0 0 1-3.43-2.12 6.728 6.728 0 0 0-6.05-3.74h-1.68l-.444-.89c-.79-1.58-.074-3.5 1.63-4.373 1.4-.719 2.304-2.29 2.304-4.003v-.988c0-.807.657-1.464 1.465-1.464h1.767c3.013 0 5.127-2.972 4.163-5.802L30.1 3.53a22.012 22.012 0 0 1 8.825 4.365l-.448 1.341a1.472 1.472 0 0 1-.353.573l-1.583 1.583a4.366 4.366 0 0 0-1.287 3.107v1.716a4.4 4.4 0 0 0 4.394 4.395c.808 0 1.465.657 1.465 1.465v2.238c0 .226-.053.452-.154.655l-.5 1a4.367 4.367 0 0 0 .192 4.276 4.366 4.366 0 0 0 3.738 2.083h1.43c-2.793 7.916-9.979 13.778-18.616 14.638z"/></g><g><path fill="#4f83d9" d="M2.93 24.995A21.94 21.94 0 0 1 6.424 13.09l2.782.677c.488.123.884.458 1.086.92.201.46.177.98-.067 1.424-1.06 1.93-.423 4.419 1.45 5.668l6.33 4.22 1.455 2.91a2.567 2.567 0 0 1-.482 2.966l-.873.873a1.465 1.465 0 0 0 0 2.072l1.748 1.748c.485.485.753 1.13.753 1.817 0 2.977.678 5.927 1.96 8.545C11.536 45.715 2.93 36.342 2.93 24.995z"/></g><g><path fill="#fff" d="M24.992 2.93c.619 0 1.232.027 1.838.077l1.314 3.943a1.464 1.464 0 0 1-1.386 1.937h-1.766a4.398 4.398 0 0 0-4.393 4.394v.988c0 .616-.286 1.177-.712 1.396-2.284 1.172-3.584 3.411-3.547 5.71l-3.042-2.03c-.619-.412-.841-1.21-.508-1.819a4.516 4.516 0 0 0 .184-4.008 4.513 4.513 0 0 0-3.068-2.59l-1.57-.383C12.382 5.883 18.348 2.93 24.991 2.93zM46.63 29.385H44.39a1.444 1.444 0 0 1-1.246-.695 1.443 1.443 0 0 1-.064-1.424l.5-1a4.414 4.414 0 0 0 .464-1.965v-2.237a4.398 4.398 0 0 0-4.395-4.392 1.466 1.466 0 0 1-1.464-1.464v-1.716c0-.39.152-.758.429-1.035l1.582-1.581c.48-.48.847-1.074 1.062-1.717l.017-.051a21.968 21.968 0 0 1 5.796 14.884c0 1.504-.152 2.973-.44 4.393zM33.075 39a7.272 7.272 0 0 0 2.179-5.212v-2.93c0-.809-.656-1.464-1.465-1.464h-2.584a3.814 3.814 0 0 1-3.43-2.12 6.728 6.728 0 0 0-6.05-3.74h-1.679l-.445-.89c-.79-1.58-.074-3.5 1.63-4.374 1.4-.718 2.304-2.289 2.304-4.002v-.988c0-.807.657-1.465 1.465-1.465h1.767c3.013 0 5.127-2.971 4.164-5.801l-.83-2.49a22.012 22.012 0 0 1 8.824 4.365l-.447 1.342a1.472 1.472 0 0 1-.354.573l-1.583 1.582a4.366 4.366 0 0 0-1.287 3.108v1.716a4.4 4.4 0 0 0 4.394 4.394c.808 0 1.465.658 1.465 1.465v2.238c0 .227-.053.453-.154.655l-.5 1.001a4.367 4.367 0 0 0 .192 4.276 4.366 4.366 0 0 0 3.738 2.083h1.43c-2.793 7.916-9.979 13.778-18.616 14.638 1.249-2.685 3.185-5.306 5.872-7.96zM21.511 26.465h.213a3.81 3.81 0 0 1 3.427 2.12 6.721 6.721 0 0 0 6.045 3.74h1.118v1.464a4.365 4.365 0 0 1-1.306 3.127c-2.701 2.67-4.721 5.338-6.114 8.085a16.936 16.936 0 0 1-1.36-6.611c0-1.469-.572-2.85-1.61-3.889l-.715-.715a5.496 5.496 0 0 0 .87-6.183zM2.93 25.004a21.96 21.96 0 0 1 3.492-11.91l2.78.678a1.6 1.6 0 0 1 1.086.92c.201.46.177.98-.067 1.425-1.06 1.93-.423 4.42 1.45 5.669l6.326 4.22 1.454 2.912a2.57 2.57 0 0 1-.481 2.968l-.873.873a1.466 1.466 0 0 0 0 2.072l1.747 1.748c.485.486.752 1.132.752 1.818 0 2.978.678 5.93 1.959 8.548C11.533 45.73 2.93 36.353 2.93 25.004zM0 25c0 13.764 11.234 24.999 24.998 25H25c13.766 0 25-11.235 25-25C50 11.234 38.765 0 25 0 11.252 0 0 11.223 0 25z"/></g></g></g></svg>