<svg xmlns="http://www.w3.org/2000/svg" width="30" height="30" viewBox="0 0 30 30"><g><g><g><path fill="#cbd9f2" d="M19.746 18.752c-4.685 0-8.496-3.811-8.496-8.496 0-4.685 3.811-8.496 8.496-8.496 4.685 0 8.496 3.811 8.496 8.496 0 4.685-3.811 8.496-8.496 8.496z"/></g><g><path fill="#2364d0" d="M1.758 19.746c0-4.445 3.432-8.104 7.785-8.466a10.192 10.192 0 0 0 1.73 4.742l-1.026 1.784-1.679-2.942a.235.235 0 0 0-.203-.118H6.82a.235.235 0 0 0-.201.356l2.517 4.162H7.81a.234.234 0 0 0-.234.234v1.254c0 .13.105.235.234.235h1.584v.9H7.809a.234.234 0 0 0-.234.234v1.255c0 .129.105.234.234.234h1.584v1.683c0 .13.104.234.234.234h1.254c.13 0 .234-.105.234-.234V23.61H12.7c.13 0 .234-.105.234-.234V22.12a.234.234 0 0 0-.234-.234h-1.584v-.9H12.7c.13 0 .234-.105.234-.235v-1.254a.234.234 0 0 0-.234-.234h-1.327l1.09-1.802a10.229 10.229 0 0 0 6.258 2.995c-.362 4.353-4.02 7.785-8.466 7.785-4.685 0-8.496-3.811-8.496-8.496zm17.988-.996c-4.685 0-8.496-3.811-8.496-8.496 0-4.685 3.811-8.496 8.496-8.496 4.685 0 8.496 3.811 8.496 8.496 0 4.685-3.811 8.496-8.496 8.496zM30 10.254C30 4.6 25.4 0 19.746 0 14.34 0 9.896 4.207 9.52 9.519 4.207 9.897 0 14.339 0 19.746 0 25.4 4.6 30 10.254 30c5.407 0 9.85-4.207 10.227-9.519C25.793 20.103 30 15.661 30 10.254z"/></g><g><path fill="#2364d0" d="M22.093 10.273c-.383-.435-.931-.788-1.724-1.111-1.222-.506-1.313-.734-1.313-1.023 0-.384.328-.613.877-.613.739 0 1.205.266 1.403.38a.52.52 0 0 0 .747-.268l.33-.87a.52.52 0 0 0-.225-.635 3.845 3.845 0 0 0-1.457-.492v-.8a.522.522 0 0 0-.521-.521h-.818a.522.522 0 0 0-.522.521v.917c-1.232.361-1.991 1.323-1.991 2.54 0 .696.243 1.268.743 1.75.392.375.951.699 1.759 1.015 1.165.473 1.165.872 1.165 1.087 0 .469-.412.771-1.049.771a2.973 2.973 0 0 1-1.61-.48.518.518 0 0 0-.78.259l-.317.884a.523.523 0 0 0 .188.6c.443.316 1.107.55 1.8.64v.848c0 .288.234.521.521.521h.831a.522.522 0 0 0 .522-.52v-.958c1.27-.376 2.084-1.406 2.084-2.658 0-.709-.21-1.292-.643-1.784z"/></g></g></g></svg>