<svg xmlns="http://www.w3.org/2000/svg" width="30" height="30" viewBox="0 0 30 30"><g><g><g><g><path fill="#2364d0" d="M24.797 9.322h-4.09v-4.09L22.84 3.1v3.19a.9.9 0 0 0 .9.9h3.19zM5.39 24.632C.61 19.854.61 12.081 5.39 7.304c2.346-2.345 5.512-3.575 8.704-3.575 1.638 0 3.283.324 4.827.988l-.005.036a.958.958 0 0 0-.007.107V8.35C15.417 6.127 10.717 6.538 7.67 9.583c-3.522 3.52-3.522 9.249 0 12.77a9.007 9.007 0 0 0 6.387 2.64c2.313 0 4.627-.88 6.387-2.64 3.047-3.046 3.457-7.743 1.233-11.235h3.492a.874.874 0 0 0 .108-.007l.035-.004c1.96 4.55.962 9.978-2.587 13.525-4.78 4.777-12.556 4.777-17.336 0zm10.725-11.989a3.92 3.92 0 0 0-4.825.562 3.889 3.889 0 0 0-1.146 2.768c0 1.046.407 2.028 1.146 2.768a3.888 3.888 0 0 0 2.768 1.146 3.888 3.888 0 0 0 2.768-1.146 3.92 3.92 0 0 0 .561-4.825l2.383-2.383c2.207 2.836 2.008 6.95-.597 9.555-2.82 2.82-7.41 2.82-10.23 0-2.82-2.82-2.82-7.41 0-10.23a7.212 7.212 0 0 1 5.115-2.116 7.22 7.22 0 0 1 4.44 1.519zm-2.057 5.445c-.565 0-1.096-.22-1.496-.62a2.1 2.1 0 0 1-.62-1.495c0-.565.22-1.096.62-1.496a2.11 2.11 0 0 1 2.213-.493l-1.353 1.353a.9.9 0 0 0 1.272 1.272l1.353-1.353a2.118 2.118 0 0 1-1.989 2.832zm15.875-12.14a.9.9 0 0 0-.831-.556l-4.462-.002V.93a.9.9 0 0 0-1.536-.637l-2.991 2.991a14.183 14.183 0 0 0-8.007-1.233 13.933 13.933 0 0 0-7.988 3.982A13.965 13.965 0 0 0 0 15.973c0 3.755 1.462 7.285 4.117 9.94a13.965 13.965 0 0 0 9.94 4.117c3.755 0 7.285-1.463 9.94-4.117a13.935 13.935 0 0 0 3.982-7.988 14.186 14.186 0 0 0-1.233-8.007l2.99-2.99a.9.9 0 0 0 .196-.98z"/></g><g><path fill="#cbd9f2" d="M22.72 24.642c-4.78 4.78-12.556 4.78-17.335 0-4.78-4.78-4.78-12.556 0-17.336C7.73 4.961 10.896 3.73 14.088 3.73c1.638 0 3.283.325 4.827.989l-.004.036a.958.958 0 0 0-.007.107v3.492C15.41 6.13 10.712 6.54 7.664 9.587c-3.521 3.522-3.521 9.252 0 12.774a9.005 9.005 0 0 0 6.388 2.642c2.313 0 4.627-.88 6.388-2.642 3.046-3.046 3.457-7.746 1.232-11.239h3.493a.874.874 0 0 0 .107-.006l.035-.005c1.96 4.552.962 9.982-2.587 13.53z"/></g></g></g></g></svg>