<svg xmlns="http://www.w3.org/2000/svg" width="30" height="30" viewBox="0 0 30 30"><g><g><g><path fill="#cbd9f2" d="M20.269 12.36h.879v13.183c0 .485.393.879.879.879h5.332a.879.879 0 0 0 .879-.88V12.36h.879a.879.879 0 0 0 .742-1.35l-4.453-7.03a.879.879 0 0 0-.743-.409h-.002a.879.879 0 0 0-.743.413l-4.394 7.031a.879.879 0 0 0 .745 1.345z"/></g><g><path fill="#cbd9f2" d="M17.636 24.67H14.12v-8.79h3.516z"/></g><g><path fill="#cbd9f2" d="M5.33 21.15h3.516v3.516H5.33z"/></g><g><path fill="#2364d0" d="M30 29.121a.879.879 0 0 1-.879.879H.88A.879.879 0 0 1 0 29.121V.88a.879.879 0 0 1 1.758 0v27.363H29.12c.485 0 .879.394.879.88zm-10.495-17.21a.879.879 0 0 1 .023-.892l4.395-7.032a.879.879 0 0 1 .742-.413h.003c.301 0 .581.154.742.409l4.454 7.031a.879.879 0 0 1-.743 1.35h-.879v13.183a.879.879 0 0 1-.879.879h-5.332a.879.879 0 0 1-.879-.88V12.364h-.879a.879.879 0 0 1-.768-.453zm2.354-1.306h.172c.486 0 .88.394.88.88v13.183h3.573V11.484c0-.485.394-.879.88-.879h.16l-2.851-4.501zM19.395 15v10.547a.879.879 0 0 1-.88.879h-5.273a.879.879 0 0 1-.879-.88V15c0-.485.394-.879.88-.879h5.273c.485 0 .879.394.879.879zm-1.758.879H14.12v8.789h3.516zM3.574 25.547v-5.274c0-.485.394-.878.88-.878h5.273c.485 0 .878.393.878.878v5.274a.879.879 0 0 1-.878.879H4.453a.879.879 0 0 1-.879-.88zm1.758-.879h3.516v-3.516H5.332zm-1.5-9.046a.879.879 0 0 1 0-1.243l5.273-5.274a.879.879 0 0 1 1.243 0l1.136 1.136 4.91-4.909H15a.879.879 0 0 1 0-1.758h3.515a.88.88 0 0 1 .88.877v3.518a.879.879 0 0 1-1.758 0V6.575l-5.531 5.53a.879.879 0 0 1-1.243 0L9.727 10.97l-4.652 4.652a.879.879 0 0 1-1.243 0z"/></g></g></g></svg>