<svg xmlns="http://www.w3.org/2000/svg" width="30" height="30" viewBox="0 0 30 30"><g><g><g><path fill="#cbd9f2" d="M14.123 23.988V28.239H2.64a.88.88 0 0 1-.879-.879V15.87h2.807a3.52 3.52 0 0 0 3.404 4.4 3.52 3.52 0 0 0 3.404-4.394h2.748v4.188c0 .765.906 1.157 1.466.655.323-.29.739-.449 1.171-.449.97 0 1.758.789 1.758 1.758a1.76 1.76 0 0 1-1.758 1.758c-.432 0-.847-.159-1.17-.447-.559-.505-1.463-.112-1.467.649z"/></g><g><path fill="#2364d0" d="M28.242 14.121h-2.807a3.52 3.52 0 0 0-3.404-4.395 3.52 3.52 0 0 0-3.404 4.395H15.88V9.934c0-.744-.89-1.17-1.465-.655a1.76 1.76 0 0 1-2.93-1.31 1.76 1.76 0 0 1 2.93-1.31c.558.498 1.465.113 1.465-.656V1.758h11.484a.88.88 0 0 1 .88.879zm0 13.242a.88.88 0 0 1-.879.88H15.88v-2.808a3.52 3.52 0 0 0 4.395-3.404 3.52 3.52 0 0 0-4.395-3.404V15.88h4.188a.879.879 0 0 0 .655-1.466 1.753 1.753 0 0 1-.449-1.17c0-.97.789-1.759 1.758-1.759.97 0 1.758.789 1.758 1.758 0 .433-.16.849-.449 1.171a.879.879 0 0 0 .655 1.466h4.247zm-14.12-3.372v4.252H2.636a.88.88 0 0 1-.88-.88v-11.49h2.808a3.52 3.52 0 0 0 3.404 4.4 3.52 3.52 0 0 0 3.404-4.394h2.748v4.189c0 .764.906 1.156 1.466.654.322-.29.738-.449 1.17-.449.97 0 1.759.789 1.759 1.758a1.76 1.76 0 0 1-1.758 1.758c-.432 0-.847-.159-1.17-.447-.56-.505-1.463-.112-1.467.649zM27.362 0H15a.879.879 0 0 0-.879.879v3.685a3.52 3.52 0 0 0-4.395 3.404 3.52 3.52 0 0 0 4.395 3.405v2.748H9.933a.879.879 0 0 0-.655 1.466c.29.322.449.738.449 1.17a1.76 1.76 0 0 1-1.758 1.759 1.76 1.76 0 0 1-1.758-1.758c0-.433.16-.849.449-1.171a.879.879 0 0 0-.655-1.466H.879A.879.879 0 0 0 0 15v12.363A2.64 2.64 0 0 0 2.637 30h24.726A2.64 2.64 0 0 0 30 27.363V2.637A2.64 2.64 0 0 0 27.363 0z"/></g></g></g></svg>