<svg xmlns="http://www.w3.org/2000/svg" width="30" height="30" viewBox="0 0 30 30"><g><g><g><g><path fill="#cbd9f2" d="M15.002 28.24c-3.471 0-6.886-1.432-9.367-3.93a.879.879 0 0 0-1.247.001l-.084.084L3.64 21.1l3.294.665-.066.066a.879.879 0 0 0-.003 1.24c2.15 2.169 5.115 3.413 8.136 3.413 6.02 0 11.485-4.896 11.485-11.485 0-.232-.008-.465-.022-.698l1.775.362c.003.112.004.225.004.336 0 7.253-5.816 13.243-13.242 13.243z"/></g><g><path fill="#2364d0" d="M29.257 13.078a.879.879 0 0 1 .7.795A14.971 14.971 0 0 1 15 30a14.95 14.95 0 0 1-9.974-3.841l-.642.642a.88.88 0 0 1-1.483-.449L1.652 20.15a.878.878 0 0 1 1.037-1.036l6.2 1.247a.879.879 0 0 1 .451 1.484l-.583.584c1.746 1.47 3.977 2.299 6.243 2.299 5.096 0 9.727-4.162 9.727-9.727 0-.554-.048-1.11-.14-1.653a.88.88 0 0 1 1.042-1.01zM-765 24.397c0-.046 0-.008 0 0m780 3.845c7.425 0 13.242-5.99 13.242-13.242 0-.112-.001-.224-.004-.336l-1.775-.362c.014.232.021.465.021.698 0 6.59-5.465 11.484-11.484 11.484-3.02 0-5.986-1.243-8.136-3.412a.879.879 0 0 1 .003-1.24l.066-.066-3.294-.665c.578 2.874.658 3.271.662 3.296l.085-.084a.879.879 0 0 1 1.247 0c2.481 2.497 5.896 3.93 9.367 3.93zM4.37 17.64l-3.625-.727a.88.88 0 0 1-.704-.797A15.07 15.07 0 0 1 0 15C0 6.583 6.947 0 15 0a14.95 14.95 0 0 1 9.975 3.841l.642-.642a.879.879 0 0 1 1.483.449l1.248 6.203a.878.878 0 0 1-1.037 1.036l-6.2-1.247a.88.88 0 0 1-.451-1.484l.583-.584C19.497 6.102 17.266 5.273 15 5.273c-5.096 0-9.727 4.161-9.727 9.727 0 .546.046 1.095.137 1.631a.88.88 0 0 1-1.04 1.008zm-.834-1.96c-.014-.226-.02-.453-.02-.679C3.516 8.41 8.98 3.516 15 3.516c3.02 0 5.986 1.243 8.136 3.412a.88.88 0 0 1-.003 1.24l-.065.066 3.293.665c-.84-4.183-.627-3.12-.663-3.296l-.084.084a.879.879 0 0 1-1.247 0C21.886 3.19 18.47 1.758 15 1.758 8.013 1.758 1.758 7.48 1.758 15c0 .108.001.215.004.323z"/></g></g></g></g></svg>