<svg xmlns="http://www.w3.org/2000/svg" width="18" height="18" viewBox="0 0 18 18"><g><g><g><path fill="#fff" d="M4.194 5.79H.58a.29.29 0 0 0-.29.29v11.61c0 .16.13.29.29.29h3.614c.16 0 .29-.13.29-.29V6.08a.29.29 0 0 0-.29-.29z"/></g><g><path fill="#fff" d="M2.384.02A2.386 2.386 0 0 0 0 2.402a2.386 2.386 0 0 0 2.384 2.383 2.385 2.385 0 0 0 2.383-2.383A2.385 2.385 0 0 0 2.384.02z"/></g><g><path fill="#fff" d="M13.386 5.5c-1.451 0-2.524.624-3.175 1.333v-.754a.29.29 0 0 0-.29-.29H6.46a.29.29 0 0 0-.291.29v11.609c0 .16.13.29.29.29h3.606c.16 0 .29-.13.29-.29v-5.744c0-1.936.526-2.69 1.875-2.69 1.47 0 1.586 1.21 1.586 2.79v5.644c0 .16.13.29.29.29h3.608c.16 0 .29-.13.29-.29V11.32c0-2.878-.549-5.82-4.619-5.82z"/></g></g></g></svg>