<svg xmlns="http://www.w3.org/2000/svg" width="10" height="18" viewBox="0 0 10 18"><g><g><g><path fill="#fff" d="M.33 9.587h1.973v8.123c0 .16.13.29.29.29H5.94c.16 0 .29-.13.29-.29V9.625h2.269a.29.29 0 0 0 .288-.257l.345-2.99a.29.29 0 0 0-.289-.324H6.23V4.179c0-.565.304-.851.904-.851h1.708c.16 0 .29-.13.29-.29V.291a.29.29 0 0 0-.29-.29H6.488A2.31 2.31 0 0 0 6.38 0c-.408 0-1.828.08-2.95 1.112-1.242 1.143-1.07 2.512-1.028 2.75v2.192H.33a.29.29 0 0 0-.29.29v2.952c0 .16.13.29.29.29z"/></g></g></g></svg>